<?xml version="1.0" encoding="UTF-8"?>
<svg width="233px" height="139px" viewBox="0 0 233 139" version="1.1" xmlns="http://www.w3.org/2000/svg" xmlns:xlink="http://www.w3.org/1999/xlink">
    <!-- Generator: Sketch 52.5 (67469) - http://www.bohemiancoding.com/sketch -->
    <title>Group 4</title>
    <desc>Created with Sketch.</desc>
    <g id="Page-2" stroke="none" stroke-width="1" fill="none" fill-rule="evenodd">
        <g id="Maquette-Briefs-2" transform="translate(-31.000000, -104.000000)">
            <g id="Group-4" transform="translate(32.000000, 104.000000)">
                <g id="Group-2">
                    <polygon id="Fill-203" fill="#FFFFFF" points="0.165 138.39 231.165 138.39 231.165 0.705 0.165 0.705"></polygon>
                    <path d="M20.374,16.1589 L20.374,29.9399" id="Stroke-211" stroke="#000000" stroke-dasharray="2.96,1.96"></path>
                    <path d="M23.8542,32.3999 L206.8872,32.3999" id="Stroke-212" stroke="#000000" stroke-dasharray="2.987,1.987"></path>
                    <path d="M209.374,28.9597 L209.374,15.1787" id="Stroke-213" stroke="#000000" stroke-dasharray="2.96,1.96"></path>
                    <path d="M205.8937,12.7188 L22.8607,12.7188" id="Stroke-214" stroke="#000000" stroke-dasharray="2.987,1.987"></path>
                    <path d="M20.374,30.9197 L20.374,32.3997 L21.867,32.3997 M207.881,32.3997 L209.374,32.3997 L209.374,30.9197 M209.374,14.1987 L209.374,12.7187 L207.881,12.7187 M21.867,12.7187 L20.374,12.7187 L20.374,14.1987" id="Stroke-215" stroke="#000000"></path>
                    <path d="M20.374,40.8508 L20.374,98.0428" id="Stroke-216" stroke="#000000" stroke-dasharray="2.923,1.923"></path>
                    <path d="M23.946,100.4663 L109.554,100.4663" id="Stroke-217" stroke="#000000" stroke-dasharray="3.048,2.048"></path>
                    <path d="M112.1024,97.0815 L112.1024,39.8895" id="Stroke-218" stroke="#000000" stroke-dasharray="2.923,1.923"></path>
                    <path d="M108.5303,37.4663 L22.9223,37.4663" id="Stroke-219" stroke="#000000" stroke-dasharray="3.048,2.048"></path>
                    <path d="M20.374,99.0046 L20.374,100.4666 L21.898,100.4666 M110.578,100.4666 L112.102,100.4666 L112.102,99.0046 M112.102,38.9276 L112.102,37.4666 L110.578,37.4666 M21.898,37.4666 L20.374,37.4666 L20.374,38.9276" id="Stroke-220" stroke="#000000"></path>
                    <path d="M116.1654,40.8508 L116.1654,98.0428" id="Stroke-221" stroke="#000000" stroke-dasharray="2.923,1.923"></path>
                    <path d="M119.5947,100.4663 L206.9217,100.4663" id="Stroke-222" stroke="#000000" stroke-dasharray="2.953,1.953"></path>
                    <path d="M209.3741,97.0815 L209.3741,39.8895" id="Stroke-223" stroke="#000000" stroke-dasharray="2.923,1.923"></path>
                    <path d="M205.9448,37.4663 L118.6188,37.4663" id="Stroke-224" stroke="#000000" stroke-dasharray="2.953,1.953"></path>
                    <path d="M116.1654,99.0046 L116.1654,100.4666 L117.6414,100.4666 M207.8974,100.4666 L209.3744,100.4666 L209.3744,99.0046 M209.3744,38.9276 L209.3744,37.4666 L207.8974,37.4666 M117.6414,37.4666 L116.1654,37.4666 L116.1654,38.9276" id="Stroke-225" stroke="#000000"></path>
                    <path d="M20.374,107.2673 L20.374,131.1803" id="Stroke-226" stroke="#000000" stroke-dasharray="2.991,1.991"></path>
                    <path d="M23.8542,133.6714 L206.8872,133.6714" id="Stroke-227" stroke="#000000" stroke-dasharray="2.987,1.987"></path>
                    <path d="M209.374,130.1851 L209.374,106.2721" id="Stroke-228" stroke="#000000" stroke-dasharray="2.991,1.991"></path>
                    <path d="M205.8937,103.781 L22.8607,103.781" id="Stroke-229" stroke="#000000" stroke-dasharray="2.987,1.987"></path>
                    <path d="M20.374,132.176 L20.374,133.671 L21.867,133.671 M207.881,133.671 L209.374,133.671 L209.374,132.176 M209.374,105.276 L209.374,103.781 L207.881,103.781 M21.867,103.781 L20.374,103.781 L20.374,105.276" id="Stroke-230" stroke="#000000"></path>
                    <polygon id="Stroke-231" stroke="#000000" points="55.923 82.333 76.553 82.333 76.553 56.762 55.923 56.762"></polygon>
                    <path d="M66.9469,77.3447 L66.9469,71.0927 C66.9469,71.0927 66.8239,71.2497 66.6249,71.4227 C66.1609,71.8267 65.2829,72.3167 64.5829,71.0927 C63.5829,69.3447 59.5829,69.3447 60.5829,67.3447 C61.5829,65.3447 61.7879,63.3447 63.6849,63.3447 C65.5829,63.3447 69.5829,62.3447 69.5829,65.3447 C69.5829,68.3447 71.5829,67.5967 71.5829,69.3447 C71.5829,71.0927 70.5829,73.3447 69.5829,73.3447 C68.5829,73.3447 66.9469,71.6737 66.9469,71.6737" id="Stroke-232" stroke="#000000"></path>
                    <polygon id="Stroke-234" stroke="#000000" points="152.455 82.8 173.085 82.8 173.085 57.229 152.455 57.229"></polygon>
                    <g id="Group-241" transform="translate(156.000000, 63.000000)" stroke="#000000" stroke-linecap="round">
                        <path d="M0.1653,3.2188 C0.1653,3.2188 2.2693,0.7188 4.1653,0.7188 C6.0613,0.7188 6.1653,3.5408 8.1653,3.5408 C10.1653,3.5408 11.1653,0.2188 12.1653,2.1298" id="Stroke-235"></path>
                        <path d="M12.1654,6.509 C12.1654,6.509 10.0614,9.009 8.1654,9.009 C6.2694,9.009 6.1654,6.187 4.1654,6.187 C2.1654,6.187 1.1654,9.509 0.1654,7.598" id="Stroke-237"></path>
                        <path d="M0.1653,13.5225 C0.1653,13.5225 2.2693,11.0225 4.1653,11.0225 C6.0613,11.0225 6.1653,13.8445 8.1653,13.8445 C10.1653,13.8445 11.1653,10.5225 12.1653,12.4335" id="Stroke-239"></path>
                    </g>
                    <text id="T" font-family="Arial-Black, Arial Black" font-size="20.5545" font-weight="700" fill="#000000">
                        <tspan x="106.7063" y="29.2880434">T</tspan>
                    </text>
                    <polygon id="Stroke-242" stroke="#000000" points="100.958 129.2432 114.491 107.8682 128.77 128.8552"></polygon>
                    <text id="!" font-family="LucidaGrande, Lucida Grande" font-size="12" font-weight="normal" fill="#000000">
                        <tspan x="112.6023" y="122.395688">!</tspan>
                    </text>
                </g>
                <polygon id="Stroke-206" stroke="#000000" points="-1.42108547e-14 138.236588 231 138.236588 231 0.5515875 -1.42108547e-14 0.5515875"></polygon>
            </g>
        </g>
    </g>
</svg>