<?xml version="1.0" encoding="UTF-8"?>
<svg width="233px" height="140px" viewBox="0 0 233 140" version="1.1" xmlns="http://www.w3.org/2000/svg" xmlns:xlink="http://www.w3.org/1999/xlink">
    <!-- Generator: Sketch 52.5 (67469) - http://www.bohemiancoding.com/sketch -->
    <title>Group 3</title>
    <desc>Created with Sketch.</desc>
    <g id="Page-2" stroke="none" stroke-width="1" fill="none" fill-rule="evenodd">
        <g id="Maquette-Briefs-2" transform="translate(-32.000000, -678.000000)">
            <g id="Group-3" transform="translate(33.000000, 679.000000)">
                <polygon id="Fill-209" fill="#FFFFFF" points="0.165 137.937 231.165 137.937 231.165 0.252 0.165 0.252"></polygon>
                <polygon id="Stroke-210" stroke="#000000" points="0.165 137.937 231.165 137.937 231.165 0.252 0.165 0.252"></polygon>
                <path d="M21.5394,103.2048 L21.5394,127.1178" id="Stroke-286" stroke="#000000" stroke-dasharray="2.991,1.991"></path>
                <path d="M25.0196,129.6089 L208.0526,129.6089" id="Stroke-287" stroke="#000000" stroke-dasharray="2.987,1.987"></path>
                <path d="M210.5394,126.1226 L210.5394,102.2096" id="Stroke-288" stroke="#000000" stroke-dasharray="2.991,1.991"></path>
                <path d="M207.0591,99.7185 L24.0261,99.7185" id="Stroke-289" stroke="#000000" stroke-dasharray="2.987,1.987"></path>
                <path d="M21.5394,128.1135 L21.5394,129.6085 L23.0324,129.6085 M209.0464,129.6085 L210.5394,129.6085 L210.5394,128.1135 M210.5394,101.2135 L210.5394,99.7185 L209.0464,99.7185 M23.0324,99.7185 L21.5394,99.7185 L21.5394,101.2135" id="Stroke-290" stroke="#000000"></path>
                <polygon id="Stroke-291" stroke="#000000" points="102.1234 125.1812 115.6564 103.8062 129.9354 124.7932"></polygon>
                <text id="!" font-family="LucidaGrande, Lucida Grande" font-size="12" font-weight="normal" fill="#000000">
                    <tspan x="113.7677" y="118.333488">!</tspan>
                </text>
                <path d="M21.1653,10.1887 L21.1653,23.9697" id="Stroke-292" stroke="#000000" stroke-dasharray="2.96,1.96"></path>
                <path d="M24.6456,26.4297 L207.6786,26.4297" id="Stroke-293" stroke="#000000" stroke-dasharray="2.987,1.987"></path>
                <path d="M210.1653,22.9895 L210.1653,9.2085" id="Stroke-294" stroke="#000000" stroke-dasharray="2.96,1.96"></path>
                <path d="M206.6851,6.7485 L23.6521,6.7485" id="Stroke-295" stroke="#000000" stroke-dasharray="2.987,1.987"></path>
                <path d="M21.1653,24.9495 L21.1653,26.4295 L22.6583,26.4295 M208.6723,26.4295 L210.1653,26.4295 L210.1653,24.9495 M210.1653,8.2285 L210.1653,6.7485 L208.6723,6.7485 M22.6583,6.7485 L21.1653,6.7485 L21.1653,8.2285" id="Stroke-296" stroke="#000000"></path>
                <text id="T" font-family="Arial-Black, Arial Black" font-size="20.5545" font-weight="700" fill="#000000">
                    <tspan x="107.6335" y="23.6093434">T</tspan>
                </text>
                <path d="M21.3937,34.9585 L21.3937,92.1505" id="Stroke-297" stroke="#000000" stroke-dasharray="2.923,1.923"></path>
                <path d="M24.874,94.574 L207.907,94.574" id="Stroke-298" stroke="#000000" stroke-dasharray="2.987,1.987"></path>
                <path d="M210.3937,91.1892 L210.3937,33.9972" id="Stroke-299" stroke="#000000" stroke-dasharray="2.923,1.923"></path>
                <path d="M206.9135,31.574 L23.8805,31.574" id="Stroke-300" stroke="#000000" stroke-dasharray="2.987,1.987"></path>
                <path d="M21.3937,93.1123 L21.3937,94.5743 L22.8867,94.5743 M208.9007,94.5743 L210.3937,94.5743 L210.3937,93.1123 M210.3937,33.0353 L210.3937,31.5743 L208.9007,31.5743 M22.8867,31.5743 L21.3937,31.5743 L21.3937,33.0353" id="Stroke-301" stroke="#000000"></path>
                <polygon id="Stroke-302" stroke="#000000" points="105.35 76.568 125.98 76.568 125.98 50.997 105.35 50.997"></polygon>
                <polygon id="Stroke-303" stroke="#000000" points="109.374 64.283 109.374 72.437 122.113 72.437 122.113 64.283 115.744 64.283"></polygon>
                <path d="M116.0394,72.3115 L116.0394,63.8755" id="Stroke-304" stroke="#000000"></path>
                <path d="M109.8743,68.5939 L121.8743,68.5939" id="Stroke-305" stroke="#000000"></path>
            </g>
        </g>
    </g>
</svg>