<?xml version="1.0" encoding="UTF-8"?>
<svg width="56px" height="56px" viewBox="0 0 56 56" version="1.1" xmlns="http://www.w3.org/2000/svg" xmlns:xlink="http://www.w3.org/1999/xlink">
    <!-- Generator: Sketch 52.5 (67469) - http://www.bohemiancoding.com/sketch -->
    <title>Group 68</title>
    <desc>Created with Sketch.</desc>
    <g id="Page-1" stroke="none" stroke-width="1" fill="none" fill-rule="evenodd">
        <g id="Maquette-Briefs-2" transform="translate(-1083.000000, -7.000000)">
            <g id="Group-68" transform="translate(1084.000000, 8.000000)">
                <path d="M27.1497,53.5373 C41.8117,53.5373 53.6967,41.6513 53.6967,26.9903 C53.6967,12.3283 41.8117,0.4433 27.1497,0.4433 C12.4877,0.4433 0.6027,12.3283 0.6027,26.9903 C0.6027,41.6513 12.4877,53.5373 27.1497,53.5373" id="Fill-56" fill="#232348"></path>
                <path d="M27.1497,53.5373 C41.8117,53.5373 53.6967,41.6513 53.6967,26.9903 C53.6967,12.3283 41.8117,0.4433 27.1497,0.4433 C12.4877,0.4433 0.6027,12.3283 0.6027,26.9903 C0.6027,41.6513 12.4877,53.5373 27.1497,53.5373 Z" id="Stroke-58" stroke="#FFFFFF" stroke-width="1.831"></path>
                <path d="M14.1968,4.3713 C14.1968,4.3713 13.2818,7.7663 12.3658,9.5973 C11.4508,11.4283 11.4508,14.1743 11.4508,15.0893 C11.4508,16.0053 10.5348,16.0053 9.6198,16.9203 C8.7038,17.8363 8.7038,19.6663 8.7038,19.6663 L6.8738,20.5823 L5.9578,22.4133 C5.9578,22.4133 2.2958,27.4173 1.3808,27.8963 C0.4658,28.3753 0.4658,27.9053 0.4658,27.9053 C0.4658,27.9053 -0.3132,10.7793 14.1968,4.3713" id="Fill-60" fill="#FFFFFF"></path>
                <path d="M44.4056,8.6818 L37.9976,6.8508 C37.9976,6.8508 32.5046,7.7668 34.3356,9.5968 C36.1666,11.4278 38.9126,12.3438 37.0826,13.2588 C35.2516,14.1748 32.5046,15.5628 32.5046,16.2418 C32.5046,16.9208 32.1256,17.8358 30.6746,18.7518 C29.2226,19.6668 29.7586,19.6668 29.7586,21.4978 C29.7586,23.3288 28.8436,26.0838 27.9276,26.9898 C27.0126,27.8968 25.2796,37.0598 30.6746,37.0598 C36.0686,37.0598 36.1666,36.1448 36.1666,37.5178 C36.1666,38.8908 33.4206,48.0448 32.5046,48.9608 C31.5896,49.8758 30.6746,51.4388 34.3356,49.2838 C37.9976,47.1298 45.3206,37.9748 45.3206,37.9748 L50.8136,29.7368 C50.8136,29.7368 51.7286,27.9058 51.7286,30.6518 L51.7286,35.2288 L53.5596,28.6048 L52.6446,20.5828 L50.8136,15.0898 L48.0676,10.5128 L45.3206,7.7668 L44.4056,8.6818 Z" id="Fill-62" fill="#FFFFFF"></path>
                <path d="M19.6893,2.2739 C19.6893,2.2739 21.5203,5.0199 20.6043,5.9359 C19.6893,6.8509 19.0653,9.5969 19.6893,9.5969 C20.3133,9.5969 21.5203,7.7659 23.3513,7.7659 C25.1813,7.7659 27.0123,5.9359 27.9283,5.9359 C28.8433,5.9359 29.7593,3.5969 28.8433,2.0199 C27.9283,0.4429 27.1493,0.4429 27.1493,0.4429 L19.6893,2.2739 Z" id="Fill-64" fill="#FFFFFF"></path>
                <path d="M1.3809,28.821 C1.3809,28.821 4.5889,34.313 5.9579,34.313 C7.3279,34.313 7.7889,35.229 9.6199,36.144 C11.4509,37.06 13.2819,38.891 14.1969,38.891 C15.1119,38.891 16.9429,39.211 16.9429,40.721 C16.9429,42.232 17.8589,46.214 17.8589,47.129 C17.8589,48.045 19.6889,48.96 20.6049,49.876 C21.5199,50.791 16.9429,48.96 15.1119,48.045 C13.2819,47.129 8.6969,41.856 7.3279,40.721 C5.9579,39.587 4.1269,35.229 3.2119,33.398 C2.2959,31.567 1.3809,28.821 1.3809,28.821" id="Fill-66" fill="#FFFFFF"></path>
            </g>
        </g>
    </g>
</svg>