<svg height="464pt" viewBox="0 -44 464.00001 464" width="464pt" xmlns="http://www.w3.org/2000/svg"><path d="m147 273.742188-34.40625 27.527343-5.585938-5.582031c11.800782-1.496094 20.992188-11.488281 20.992188-23.695312v-24h-24c-12.207031 0-22.199219 9.191406-23.695312 20.992187l-.304688-.304687v-12.6875c0-13.234376-10.769531-24-24-24h-24v24c0 13.230468 10.769531 24 24 24h12.6875l16.304688 16.300781c-11.800782 1.496093-20.992188 11.488281-20.992188 23.699219v24h24c12.207031 0 22.199219-9.195313 23.695312-20.992188l26.648438 26.648438 11.3125-11.3125-25.679688-25.679688 33.023438-26.417969zm-51-1.75c0-4.417969 3.585938-8 8-8h8v8c0 4.414062-3.585938 8-8 8h-8zm0 48c0 4.414062-3.585938 8-8 8h-8v-8c0-4.417969 3.585938-8 8-8h8zm-32-56h-8c-4.414062 0-8-3.585938-8-8v-8h8c4.414062 0 8 3.582031 8 8zm0 0"/><path d="m52.609375 137.832031c-2.839844-4.722656-5.433594-9.59375-7.730469-14.640625l-29.085937 17.445313c4.597656 8.503906 10.246093 16.480469 16.710937 23.90625zm0 0"/><path d="m34.511719 90.253906-32.390625 10.800782c1.503906 8.574218 3.839844 16.910156 6.976562 24.953124l29.871094-17.921874c-1.863281-5.792969-3.328125-11.75-4.457031-17.832032zm0 0"/><path d="m173.535156 208.878906c-.175781-.34375-.328125-.695312-.503906-1.039062-7.160156-.144532-14.167969-.855469-21.03125-2.015625v17.503906c3.601562.269531 7.207031.46875 10.839844.527344zm0 0"/><path d="m136 221.375v-19.152344c-5.457031-1.585937-10.824219-3.375-16-5.566406v21.292969c5.265625 1.378906 10.59375 2.527343 16 3.425781zm0 0"/><path d="m68.449219 195.328125 10.207031-25.53125c-6.007812-5.527344-11.535156-11.535156-16.535156-18.007813l-18.265625 24.273438c7.730469 7.160156 15.914062 13.640625 24.59375 19.265625zm0 0"/><path d="m104 212.941406v-24.4375c-4.273438-2.480468-8.382812-5.175781-12.359375-8.066406l-9.242187 23.097656c6.96875 3.664063 14.21875 6.710938 21.601562 9.40625zm0 0"/><path d="m32 47.992188v-7.386719l-25.152344-10.0625-3.488281 17.449219zm0 0"/><path d="m160.808594 166.023438-15.441406-5.152344c-46.925782-15.640625-79.015626-58.382813-81.238282-107.425782l-16.128906-6.4375v16.984376c0 67.308593 52.257812 122.527343 118.3125 127.511718-2.703125-8.195312-4.550781-16.714844-5.503906-25.480468zm0 0"/><path d="m32 63.992188h-31.222656c-.488282 4.613281-.777344 9.253906-.777344 13.886718 0 2.320313.214844 4.597656.335938 6.894532l32.175781-10.726563c-.230469-3.328125-.511719-6.65625-.511719-10.054687zm0 0"/><path d="m256 229.140625v-61.148437h-16v74.09375c5.785156-3.847657 11.144531-8.167969 16-12.945313zm0 0"/><path d="m272 167.992188v41.0625c7.632812-12.375 12.753906-26.296876 14.871094-41.0625zm0 0"/><path d="m224 242.085938v-74.09375h-16v61.148437c4.855469 4.777344 10.214844 9.097656 16 12.945313zm0 0"/><path d="m3.625 12.023438 76.375 30.550781v5.417969c0 44.398437 28.304688 83.664062 70.433594 97.703124l9.566406 3.191407v-15.585938c-38.480469-16.832031-64-55.351562-64-97.664062v-5.878907l-88.414062-29.472656c-3.617188-1.230468-7.5937505 1.679688-7.585938 5.472656v.914063c0 2.367187 1.425781 4.46875 3.625 5.351563zm0 0"/><path d="m176 135.992188h112v16h-112zm0 0"/><path d="m192 167.992188h-14.871094c2.117188 14.765624 7.230469 28.6875 14.871094 41.0625zm0 0"/><path d="m176 47.992188c-3.945312.414062-20.359375 6.621093-24 8 3.214844 2.6875 19.703125 7.605468 24 8zm0 0"/><path d="m272 47.992188c0-22.058594-17.945312-40-40-40s-40 17.941406-40 40v72h80zm-24 0h-8v8h-16v-7.058594l-5.265625 2.632812c-3.949219 1.976563-8.757813.375-10.734375-3.574218-1.976562-3.953126-.375-8.761719 3.574219-10.738282l10.539062-5.261718h25.886719zm0 0"/><path d="m240 336.445312 14.207031-10.152343-14.207031-28.414063zm0 0"/><path d="m200 243.648438c-6.558594-5.992188-12.390625-12.664063-17.464844-19.851563l-28.816406 40.34375 14.28125 15.851563 32-13.761719zm0 0"/><path d="m420.144531 176.0625-18.265625-24.273438c-5 6.472657-10.527344 12.480469-16.535156 18.007813l10.207031 25.53125c8.679688-5.625 16.863281-12.105469 24.59375-19.265625zm0 0"/><path d="m425.03125 108.078125 29.871094 17.921875c3.136718-8.042969 5.472656-16.378906 6.976562-24.953125l-32.390625-10.800781c-1.128906 6.089844-2.59375 12.046875-4.457031 17.832031zm0 0"/><path d="m360 212.941406c7.382812-2.695312 14.632812-5.742187 21.601562-9.40625l-9.242187-23.097656c-3.976563 2.890625-8.09375 5.585938-12.359375 8.066406zm0 0"/><path d="m416 63.992188v-16.984376l-16.128906 6.445313c-2.222656 49.042969-34.3125 91.785156-81.238282 107.425781l-15.441406 5.152344c-.953125 8.757812-2.808594 17.289062-5.503906 25.472656 66.054688-4.984375 118.3125-60.203125 118.3125-127.511718zm0 0"/><path d="m456.425781.285156-88.425781 29.472656v5.878907c0 42.3125-25.519531 80.832031-64 97.664062v15.585938l9.566406-3.191407c42.128906-14.039062 70.433594-53.304687 70.433594-97.703124v-5.417969l76.375-30.550781c2.199219-.882813 3.625-2.984376 3.625-5.351563v-.914063c0-3.792968-4.054688-6.671874-7.574219-5.472656zm0 0"/><path d="m432 40.605469v7.386719h28.640625l-3.488281-17.449219zm0 0"/><path d="m432 63.992188c0 3.398437-.28125 6.726562-.511719 10.0625l32.175781 10.726562c.121094-2.304688.335938-4.582031.335938-6.902344 0-4.632812-.289062-9.273437-.777344-13.886718zm0 0"/><path d="m411.390625 137.832031 20.097656 26.710938c6.464844-7.425781 12.113281-15.390625 16.710938-23.90625l-29.078125-17.445313c-2.289063 5.054688-4.890625 9.917969-7.730469 14.640625zm0 0"/><path d="m248 255.949219c-3.984375 2.59375-8.097656 5.035156-12.425781 7.203125l-3.574219 1.78125-3.574219-1.792969c-4.328125-2.15625-8.441406-4.605469-12.425781-7.199219v11.761719l16 10.664063 16-10.664063zm0 0"/><path d="m251.3125 284.726562 16.078125 32.152344 9.089844-6.488281-22.144531-27.671875zm0 0"/><path d="m209.664062 282.71875-22.144531 27.671875 9.089844 6.488281 16.078125-32.152344zm0 0"/><path d="m224 336.445312v-38.566406l-14.207031 28.414063zm0 0"/><path d="m264 266.230469 32 13.761719 14.28125-15.839844-28.816406-40.347656c-5.074219 7.1875-10.90625 13.851562-17.464844 19.851562zm0 0"/><path d="m312 223.328125v-17.503906c-6.863281 1.160156-13.878906 1.871093-21.03125 2.015625-.167969.34375-.328125.695312-.503906 1.039062l10.695312 14.976563c3.632813-.058594 7.238282-.257813 10.839844-.527344zm0 0"/><path d="m344 217.949219v-21.292969c-5.175781 2.191406-10.542969 3.980469-16 5.566406v19.152344c5.40625-.898438 10.734375-2.046875 16-3.425781zm0 0"/><path d="m384 255.992188h12.6875l-45.28125 45.277343-34.40625-27.527343-10 12.496093 33.023438 26.417969-31.335938 31.335938h-20.6875v16h16v16h16v-20.691407l88-88v12.691407h16v-40h-40zm0 0"/></svg>