<?xml version="1.0" encoding="UTF-8"?>
<svg width="48px" height="53px" viewBox="0 0 48 53" version="1.1" xmlns="http://www.w3.org/2000/svg" xmlns:xlink="http://www.w3.org/1999/xlink">
    <!-- Generator: Sketch 52.5 (67469) - http://www.bohemiancoding.com/sketch -->
    <title>Fill 70</title>
    <desc>Created with Sketch.</desc>
    <g id="Page-1" stroke="none" stroke-width="1" fill="none" fill-rule="evenodd">
        <g id="Maquette-Briefs-2" transform="translate(-1011.000000, -9.000000)" fill="#FFFFFF">
            <path d="M1026.8232,56.3635 C1026.8232,56.3635 1029.4482,60.7375 1032.9472,61.6125 C1036.4472,62.4875 1037.3222,61.1345 1039.0712,61.1345 C1040.8212,61.1345 1044.3212,62.4045 1045.1952,61.1345 C1046.0702,59.8635 1047.8202,59.8635 1048.6952,58.1135 C1049.5702,56.3635 1049.5702,53.1695 1050.4452,51.9895 C1051.3202,50.8085 1051.3202,46.7395 1051.3202,46.7395 L1052.1942,42.3655 L1052.6232,40.3255 L1052.1942,38.7095 L1053.0732,36.2415 L1054.8192,32.7415 L1055.6942,30.9925 L1056.5692,28.3675 L1057.4442,26.6175 L1058.2312,24.8675 C1058.2312,24.8675 1059.1932,21.3685 1056.5692,21.3685 C1053.9442,21.3685 1054.8192,23.9935 1053.9442,25.7425 C1053.0692,27.4925 1050.4452,30.1175 1050.4452,30.1175 L1048.6952,33.6165 C1048.6952,33.6165 1047.8202,35.3665 1047.8202,34.4915 L1047.8202,32.7415 L1047.8202,30.1175 C1047.8202,30.1175 1048.6952,28.3675 1048.6952,27.4925 C1048.6952,26.6175 1049.5702,23.9935 1049.5702,23.1185 C1049.5702,22.2435 1049.8252,21.4785 1049.8252,21.4785 L1050.4452,17.8685 L1050.4452,16.9935 L1050.4452,16.1195 L1050.4452,15.2445 L1050.4452,14.3695 C1050.4452,14.3695 1048.8922,7.8515 1046.0702,13.4945 C1045.1952,15.2445 1045.1952,18.7435 1045.1952,18.7435 C1045.1952,18.7435 1045.1952,20.4935 1044.3212,22.2435 C1043.4462,23.9935 1043.4462,27.4925 1043.4462,27.4925 C1043.4462,27.4925 1042.5712,30.1175 1042.5712,30.9925 C1042.5712,31.8665 1040.8212,32.7415 1040.8212,31.8665 L1040.8212,28.3675 L1040.8212,23.1185 L1040.8212,17.8685 L1040.8212,11.7445 C1040.8212,11.7445 1040.8212,9.1205 1038.1962,9.1205 C1035.5722,9.1205 1036.4472,13.4945 1036.4472,13.4945 L1036.4472,16.1195 L1035.5722,18.7435 L1035.1932,22.2435 L1035.1932,25.7425 L1035.1932,28.3675 L1034.6972,30.9925 C1034.6972,30.9925 1033.8222,32.7415 1032.9472,30.1175 L1031.1972,24.8675 L1029.4482,21.3685 L1029.4482,18.7435 C1029.4482,17.8685 1027.6982,15.2445 1027.6982,15.2445 C1027.6982,15.2445 1026.8232,13.4945 1025.0732,13.4945 C1023.3242,13.4945 1023.3242,16.1195 1023.3242,16.1195 L1024.1982,20.4935 L1025.9482,25.7425 L1027.6982,30.9925 L1028.5732,33.6165 L1028.5732,36.2415 L1028.5732,39.7405 L1028.5732,40.6155 L1028.5732,41.4905 C1028.5732,42.3655 1028.5732,46.7395 1025.9482,44.1155 C1023.3242,41.4905 1020.6992,38.8655 1020.6992,38.8655 C1020.6992,38.8655 1018.9492,36.2245 1013.7002,37.1075 C1008.4512,37.9915 1016.3252,41.4905 1016.3252,41.4905 L1018.0742,43.2405 L1019.8242,44.9905 L1020.6992,46.7395 L1021.5742,48.4895 L1022.4492,50.2395 L1025.0732,53.7385 L1026.8232,56.3635 Z" id="Fill-70"></path>
        </g>
    </g>
</svg>