<?xml version="1.0" encoding="UTF-8"?>
<svg width="60px" height="75px" viewBox="0 0 60 75" version="1.1" xmlns="http://www.w3.org/2000/svg" xmlns:xlink="http://www.w3.org/1999/xlink">
    <!-- Generator: Sketch 52.5 (67469) - http://www.bohemiancoding.com/sketch -->
    <title>Fill 1</title>
    <desc>Created with Sketch.</desc>
    <g id="Page-1" stroke="none" stroke-width="1" fill="none" fill-rule="evenodd">
        <g id="Artboard-1" transform="translate(-30.000000, -22.000000)">
            <g id="Fill-1" transform="translate(30.000000, 22.000000)">
                <path d="M27.2402,0.1968 L1.4602,0.1968 L1.4602,65.8468 L21.9202,43.2468 L21.9202,15.3368 L27.2402,15.3368 C31.1502,15.3368 34.1392,17.0968 36.2002,20.6068 C37.0402,22.0468 37.7192,23.5868 38.2102,25.2568 L52.1392,9.8768 C46.5902,3.4268 38.2802,0.1968 27.2402,0.1968" fill="#172038"></path>
                <path d="M51.0898,18.0898 C51.0208,18.0098 50.9498,17.9298 50.8798,17.8498 L37.0398,33.1298 L36.9298,33.2498 C37.6508,35.6398 37.9998,38.2498 37.9998,41.0898 C37.9998,46.7498 36.8398,51.2308 34.5098,54.5098 C32.1798,57.7998 29.3298,59.4498 25.9398,59.4498 L20.6198,59.4498 L20.6198,51.2698 L0.2898,73.7198 L0.1598,73.8608 L0.1598,74.7798 L27.2098,74.7798 C36.7498,74.7798 44.4998,71.6598 50.4808,65.4298 C56.4498,59.1908 59.4408,51.0998 59.4408,41.1398 C59.4408,32.4098 56.6598,24.7298 51.0898,18.0898" id="Fill-3" fill="#BF2532"></path>
            </g>
        </g>
    </g>
</svg>