<?xml version="1.0" encoding="UTF-8"?>
<svg width="57px" height="58px" viewBox="0 0 57 58" version="1.1" xmlns="http://www.w3.org/2000/svg" xmlns:xlink="http://www.w3.org/1999/xlink">
    <!-- Generator: Sketch 52.5 (67469) - http://www.bohemiancoding.com/sketch -->
    <title>Group 43</title>
    <desc>Created with Sketch.</desc>
    <g id="Page-1" stroke="none" stroke-width="1" fill="none" fill-rule="evenodd">
        <g id="Maquette-Briefs-2" transform="translate(-1381.000000, -6.000000)">
            <g id="Group-43" transform="translate(1388.000000, 6.000000)">
                <path d="M6.2474,41.1512 L6.2474,22.9632 C6.2474,22.9632 7.1134,9.9722 20.9704,9.1062 C34.8284,8.2402 37.4264,23.3972 37.4264,24.9122 L37.4264,42.0172 L42.6234,46.3482 L0.1844,46.3482 L6.2474,41.1512 Z" id="Fill-35" fill="#FFFFFF"></path>
                <path d="M6.2474,41.1512 L6.2474,22.9632 C6.2474,22.9632 7.1134,9.9722 20.9704,9.1062 C34.8284,8.2402 37.4264,23.3972 37.4264,24.9122 L37.4264,42.0172 L42.6234,46.3482 L0.1844,46.3482 L6.2474,41.1512 Z" id="Stroke-37" stroke="#FFFFFF" stroke-width="5.197"></path>
                <path d="M16.2366,51.7144 C16.2366,54.7054 18.6606,57.1294 21.6516,57.1294 C24.6426,57.1294 27.0666,54.7054 27.0666,51.7144" id="Fill-39" fill="#FFFFFF"></path>
                <path d="M25.8545,8.2043 L25.8545,5.2443 C25.8545,2.8293 23.8965,0.8703 21.4805,0.8703 C19.0645,0.8703 17.1065,2.8293 17.1065,5.2443 L17.1065,7.3383" id="Fill-41" fill="#FFFFFF"></path>
            </g>
        </g>
    </g>
</svg>