<?xml version="1.0" encoding="UTF-8"?>
<svg width="47px" height="50px" viewBox="0 0 47 50" version="1.1" xmlns="http://www.w3.org/2000/svg" xmlns:xlink="http://www.w3.org/1999/xlink">
    <!-- Generator: Sketch 52.5 (67469) - http://www.bohemiancoding.com/sketch -->
    <title>Group 53</title>
    <desc>Created with Sketch.</desc>
    <g id="Page-1" stroke="none" stroke-width="1" fill="none" fill-rule="evenodd">
        <g id="Maquette-Briefs-2" transform="translate(-1162.000000, -11.000000)">
            <g id="Group-53" transform="translate(1165.000000, 14.000000)">
                <path d="M17.2715,33.6503 C26.5265,33.6503 34.0305,26.1473 34.0305,16.8913 C34.0305,7.6363 26.5265,0.1333 17.2715,0.1333 C8.0165,0.1333 0.5125,7.6363 0.5125,16.8913 C0.5125,26.1473 8.0165,33.6503 17.2715,33.6503" id="Fill-49"></path>
                <path d="M17.2715,33.6503 C26.5265,33.6503 34.0305,26.1473 34.0305,16.8913 C34.0305,7.6363 26.5265,0.1333 17.2715,0.1333 C8.0165,0.1333 0.5125,7.6363 0.5125,16.8913 C0.5125,26.1473 8.0165,33.6503 17.2715,33.6503 Z" id="Stroke-51" stroke="#FFFFFF" stroke-width="6"></path>
                <path d="M28.6011,31.2119 L40.9031,44.8749" id="Stroke-54" stroke="#FFFFFF" stroke-width="6"></path>
            </g>
        </g>
    </g>
</svg>